# xmcd
#
# Track frame offsets: 
#        150
#        16097
#        33986
#        48879
#        61842
#        81408
#        99953
#        120468
#        133393
#
# Disc length: 2076 seconds
#
# Revision: 0
# Processed by: cddbd v1.5.2PL0 Copyright (c) Steve Scherf et al.
# Submitted via: ExactAudioCopy v1.0b4
#
DISCID=6a081a09
DTITLE=Paul Butterfield - North South (LP)
DYEAR=1980
DGENRE=Blues
TTITLE0=I Get Excited
TTITLE1=Get Some Fun In You Life
TTITLE2=Footprints On The Windshield Upside Down
TTITLE3=Catch A Train
TTITLE4=Bread And Butterfield
TTITLE5=Living In Memphis
TTITLE6=Slow Down
TTITLE7=I Let It Go
TTITLE8=Baby Blue
EXTD=
EXTT0=
EXTT1=
EXTT2=
EXTT3=
EXTT4=
EXTT5=
EXTT6=
EXTT7=
EXTT8=
PLAYORDER=
